# xmcd
#
# Track frame offsets: 
#        150
#        18411
#        35248
#        58261
#        75145
#        95941
#        107565
#        127193
#        141631
#        155816
#        168780
#        185380
#        207329
#
# Disc length: 2979 seconds
#
# Revision: 0
# Processed by: cddbd v1.4PL0 Copyright (c) Steve Scherf et al.
# Submitted via: ExactAudioCopy v0.95a4
#
DISCID=bd0ba10d
DTITLE=Emil.RuleZ! - Zazie az ágyban
DYEAR=2001
DGENRE=Blues
TTITLE0=Winkler és Eldée a hajóra mennek
TTITLE1=Nagy Fenekû Nõk Napja
TTITLE2=Kerti parti
TTITLE3=Zazie az ágyban
TTITLE4=Térerõ
TTITLE5=Szexplanéta
TTITLE6=A lány, aki csak derékig látszik
TTITLE7=Bell
TTITLE8=Hupikék
TTITLE9=Az a nõ
TTITLE10=Veled utazik Zazie
TTITLE11=M323
TTITLE12=Bonus track
EXTD=
EXTT0=
EXTT1=
EXTT2=
EXTT3=
EXTT4=
EXTT5=
EXTT6=
EXTT7=
EXTT8=
EXTT9=
EXTT10=
EXTT11=
EXTT12=
PLAYORDER=
